<svg width="42" height="42" viewBox="0 0 42 42" fill="none" xmlns="http://www.w3.org/2000/svg">
<g id="award-fill">
<path id="Vector" d="M29.75 26.6795V38.7046C29.75 39.1877 29.3582 39.5798 28.875 39.5798C28.7164 39.5798 28.5609 39.5365 28.4249 39.455L21 35L13.5752 39.455C13.1608 39.7035 12.6233 39.5691 12.3747 39.1549C12.2931 39.0187 12.25 38.8631 12.25 38.7046V26.6795C9.04937 24.1138 7 20.1712 7 15.75C7 8.01801 13.268 1.75 21 1.75C28.732 1.75 35 8.01801 35 15.75C35 20.1712 32.9506 24.1138 29.75 26.6795ZM21 26.25C26.799 26.25 31.5 21.549 31.5 15.75C31.5 9.95101 26.799 5.25 21 5.25C15.201 5.25 10.5 9.95101 10.5 15.75C10.5 21.549 15.201 26.25 21 26.25ZM21 22.75C17.134 22.75 14 19.6159 14 15.75C14 11.884 17.134 8.75 21 8.75C24.8659 8.75 28 11.884 28 15.75C28 19.6159 24.8659 22.75 21 22.75Z" fill="black"/>
</g>
</svg>
