<svg width="42" height="42" viewBox="0 0 42 42" fill="none" xmlns="http://www.w3.org/2000/svg">
<g id="bubble-chart-line">
<path id="Vector" d="M28 28C30.8996 28 33.25 30.3504 33.25 33.25C33.25 36.1496 30.8996 38.5 28 38.5C25.1004 38.5 22.75 36.1496 22.75 33.25C22.75 30.3504 25.1004 28 28 28ZM10.5 21C14.366 21 17.5 24.1341 17.5 28C17.5 31.8659 14.366 35 10.5 35C6.634 35 3.5 31.8659 3.5 28C3.5 24.1341 6.634 21 10.5 21ZM28 31.5C27.0335 31.5 26.25 32.2835 26.25 33.25C26.25 34.2165 27.0335 35 28 35C28.9665 35 29.75 34.2165 29.75 33.25C29.75 32.2835 28.9665 31.5 28 31.5ZM10.5 24.5C8.567 24.5 7 26.0669 7 28C7 29.9331 8.567 31.5 10.5 31.5C12.433 31.5 14 29.9331 14 28C14 26.0669 12.433 24.5 10.5 24.5ZM25.375 3.5C30.6908 3.5 35 7.80925 35 13.125C35 18.4408 30.6908 22.75 25.375 22.75C20.0592 22.75 15.75 18.4408 15.75 13.125C15.75 7.80925 20.0592 3.5 25.375 3.5ZM25.375 7C21.9923 7 19.25 9.74225 19.25 13.125C19.25 16.5077 21.9923 19.25 25.375 19.25C28.7577 19.25 31.5 16.5077 31.5 13.125C31.5 9.74225 28.7577 7 25.375 7Z" fill="black"/>
</g>
</svg>
