<svg width="42" height="42" viewBox="0 0 42 42" fill="none" xmlns="http://www.w3.org/2000/svg">
<g id="medal-line">
<path id="Vector" d="M21 12.25C28.732 12.25 35 18.518 35 26.25C35 33.982 28.732 40.25 21 40.25C13.268 40.25 7 33.982 7 26.25C7 18.518 13.268 12.25 21 12.25ZM21 15.75C15.201 15.75 10.5 20.451 10.5 26.25C10.5 32.049 15.201 36.75 21 36.75C26.799 36.75 31.5 32.049 31.5 26.25C31.5 20.451 26.799 15.75 21 15.75ZM21 18.375L23.3144 23.0645L28.4897 23.8165L24.7448 27.4668L25.6287 32.6211L21 30.1875L16.3712 32.6211L17.2552 27.4668L13.5104 23.8165L18.6856 23.0645L21 18.375ZM31.5 3.50004V8.75004L29.1141 10.7408C27.1784 9.72603 25.0294 9.06303 22.7519 8.83665L22.75 3.49829L31.5 3.50004ZM19.25 3.49829L19.2495 8.83651C16.9722 9.06266 14.8233 9.72542 12.8877 10.7399L10.5 8.75004V3.50004L19.25 3.49829Z" fill="black"/>
</g>
</svg>
