<svg width="106" height="20" viewBox="0 0 106 20" fill="none" xmlns="http://www.w3.org/2000/svg">
<path id="Vector" fill-rule="evenodd" clip-rule="evenodd" d="M45.0194 1.91541C40.0394 2.5718 35.118 3.3789 30.3188 4.26126C23.525 5.50948 16.7338 6.80076 9.98351 8.84526C7.85868 9.49089 5.70089 9.89977 3.58934 10.7068C2.26385 11.2126 0.506268 11.9334 0.275608 12.0841C0.154963 12.1701 0.10233 12.2994 0.0853231 12.3424C-0.0342586 12.6437 -0.0124394 12.9341 0.0550579 13.1601C0.0821631 13.257 0.150704 13.4938 0.340972 13.5261C13.0655 15.732 26.0771 11.4278 38.8171 10.9758C60.9105 10.2011 83.6735 13.2786 105.591 19.9932C105.783 20.047 105.969 19.7779 105.995 19.3797C106.027 18.9924 105.889 18.6157 105.698 18.5619C83.7426 11.8366 60.9423 8.7483 38.8064 9.53382C26.9333 9.95348 14.8258 13.7305 2.93616 12.4392C3.20934 12.3316 3.47721 12.224 3.72169 12.1271C5.82474 11.3201 7.97348 10.922 10.0898 10.2764C16.8257 8.23186 23.6031 6.9406 30.3879 5.70314C38.8064 4.15362 47.5917 2.8193 56.4461 2.19519C59.6136 2.29204 62.7706 2.38892 65.9275 2.50729C72.757 2.76554 79.6184 3.51878 86.4319 4.53027C88.4834 4.84233 90.5348 5.16512 92.5863 5.44489C93.2666 5.54174 95.0205 5.82147 95.265 5.79994C95.5679 5.77842 95.6263 5.26197 95.6317 5.17588C95.6476 4.98219 95.637 4.71316 95.4881 4.48719C95.4722 4.45491 95.3765 4.34724 95.164 4.28267C82.7753 0.473443 69.5469 -0.161329 56.4567 0.753316C42.649 0.355177 28.7881 0.182929 15.0155 0C14.8183 0 14.6573 0.322863 14.6557 0.721003C14.6546 1.11914 14.8135 1.44202 15.0107 1.45278C24.9833 1.5819 35.0064 1.71096 45.0194 1.91541Z" fill="#170F49"/>
</svg>
