<?xml version="1.0" encoding="iso-8859-1"?>
<!-- Generator: Adobe Illustrator 23.0.3, SVG Export Plug-In . SVG Version: 6.00 Build 0)  -->
<svg version="1.1" id="Layer_1" xmlns="http://www.w3.org/2000/svg" xmlns:xlink="http://www.w3.org/1999/xlink" x="0px" y="0px"
	 viewBox="0 0 48 48" style="enable-background:new 0 0 48 48;" xml:space="preserve">
<g id="g790" transform="matrix(0.35277777,0,0,-0.35277777,30.587739,0.00997439)">
	<linearGradient id="path792_1_" gradientUnits="userSpaceOnUse" x1="-67.0132" y1="-20.1752" x2="-35.8643" y2="-52.6008">
		<stop  offset="0" style="stop-color:#21AD64"/>
		<stop  offset="1" style="stop-color:#088242"/>
	</linearGradient>
	<path id="path792" style="fill:url(#path792_1_);" d="M-3.488-12.991l26.973-53.638c0.605-1.203,0.349-2.66-0.629-3.586
		l-56.7-53.632c-2.244-2.123-5.86,0.053-5.035,3.03L-9.152-13.546C-8.407-10.858-4.742-10.498-3.488-12.991z"/>
</g>
<path style="opacity:0.05;" d="M25.729,10.67l-7.631,27.536l13.43-12.698c0.661-0.625,0.837-1.629,0.429-2.44L25.729,10.67z"/>
<path style="opacity:0.07;" d="M25.53,11.388l-7.173,25.885l12.828-12.129c0.502-0.475,0.636-1.236,0.326-1.853L25.53,11.388z"/>
<linearGradient id="path796_1_" gradientUnits="userSpaceOnUse" x1="-3.9646" y1="4.688" x2="30.4184" y2="39.0709">
	<stop  offset="0" style="stop-color:#FED100"/>
	<stop  offset="1" style="stop-color:#E36001"/>
</linearGradient>
<path id="path796" style="fill:url(#path796_1_);" d="M21.557,4.593l9.507,18.922c0.213,0.424,0.123,0.938-0.222,1.265L10.831,43.7
	c-0.792,0.749-2.067-0.019-1.776-1.07L19.559,4.788C19.822,3.84,21.115,3.714,21.557,4.593z"/>
</svg>